<svg width="64" height="64" viewBox="0 0 64 64" fill="none" xmlns="http://www.w3.org/2000/svg">
<rect width="64" height="64" rx="10.6667" fill="url(#paint0_linear_8081_5842)"/>
<path d="M39.9365 22.6078L38.0534 24.2173C36.8881 25.2124 36.1657 26.6297 36.0453 28.1574C35.9249 29.6851 36.4163 31.1981 37.4114 32.3635L38.596 33.7517C39.5909 34.9169 40.0823 36.4296 39.962 37.9571C39.8417 39.4845 39.1196 40.9017 37.9546 41.8968L24.5621 53.3332L30.0755 41.6508C30.5505 40.6444 30.7248 39.5223 30.5774 38.4193C30.43 37.3163 29.9672 36.2793 29.2446 35.433L25.8085 31.4114C23.7365 28.9845 24.3608 25.7867 26.4499 23.2657L37.8486 10.6665L39.9365 22.6078Z" fill="white"/>
<defs>
<linearGradient id="paint0_linear_8081_5842" x1="-51.3072" y1="-2.99415" x2="-27.1457" y2="78.7133" gradientUnits="userSpaceOnUse">
<stop stop-color="#AB7AE6"/>
<stop offset="1" stop-color="#710BEC"/>
</linearGradient>
</defs>
</svg>
