<svg width="65" height="48" viewBox="0 0 65 48" fill="none" xmlns="http://www.w3.org/2000/svg">
<path d="M17.3281 13.4333L15.2081 15.2445C12.4782 17.5754 12.1549 21.6787 14.4861 24.4087L15.8199 25.9704C18.1511 28.7004 17.8278 32.803 15.0982 35.1342L0.0327553 48L6.23502 34.8588C6.76945 33.7266 6.96552 32.4642 6.79965 31.2233C6.63378 29.9824 6.11303 28.8157 5.3 27.8637L1.43463 23.3371C-0.896622 20.6074 -0.193526 17.0092 2.15633 14.1736L14.9799 0L17.3281 13.4333Z" fill="white"/>
<path d="M35.5764 19.7598C34.5609 20.7018 33.3687 21.0401 32.0439 21.0401C29.9981 21.0401 28.5115 19.6419 28.9827 17.0956C29.4243 14.7697 31.4993 13.3718 33.398 13.3718C35.4438 13.3718 36.7981 14.4019 36.3552 16.9484L36.1934 17.8316H30.9245C30.8507 18.8325 31.2631 19.4066 32.4403 19.4066C33.1617 19.4066 34.03 19.2594 34.8248 18.5381L35.5764 19.7598ZM34.3991 16.5368C34.532 15.3887 34.1781 15.006 33.1032 15.006C32.3523 15.006 31.5282 15.4771 31.1601 16.5368H34.3991Z" fill="white"/>
<path d="M38.7254 13.519H40.7124L40.1808 16.551C40.5048 14.7408 41.5056 13.3718 43.463 13.3718C45.347 13.3718 46.0976 14.4906 45.7298 16.5949L44.9798 20.8783H42.9928L43.6258 17.2724C43.8465 15.9918 43.7288 15.2266 42.301 15.2266C41.1234 15.2266 40.2994 15.8888 40.0638 17.2136L39.4162 20.8783H37.4292L38.7254 13.519Z" fill="white"/>
<path d="M27.1572 17.9935C26.804 19.9806 25.1555 21.0402 22.5797 21.0402C21.0051 21.0402 19.5773 20.4517 18.7383 19.5243L19.8129 17.7862C20.5485 18.6694 21.3875 19.1256 22.9183 19.1256C24.0075 19.1256 24.9346 18.8458 25.0967 17.9922C25.2296 17.2416 24.7874 16.9914 23.6679 16.6824C21.2257 15.9919 19.9451 14.9618 20.2691 13.1676C20.5485 11.5633 21.9026 10.4299 24.4342 10.4299C25.8178 10.4299 27.0688 10.8715 27.9666 11.8282L26.8923 13.5503C26.0975 12.6532 25.4636 12.3435 24.3006 12.3435C23.1376 12.3435 22.402 12.6671 22.299 13.2855C22.1518 14.1096 22.917 14.3598 24.374 14.7572C26.4507 15.3297 27.4662 16.2125 27.1572 17.9935Z" fill="white"/>
<path d="M51.3541 13.3718C53.356 13.3718 53.8857 14.7261 53.5767 16.5364L54.7542 9.83936H56.7409L54.7984 20.8929H52.8114L53.3411 17.8758C53.0174 19.686 52.0166 21.0401 50.0147 21.0401C48.2044 21.0401 46.968 19.6418 47.3804 17.3166L47.4096 17.1252C47.8379 14.7554 49.4408 13.3718 51.3541 13.3718ZM49.3966 17.3166C49.176 18.5968 49.691 19.3032 51.0304 19.3032C52.6935 19.3032 53.2823 18.229 53.4441 17.3458L53.4883 17.0514C53.6355 16.1686 53.4148 15.2265 51.7222 15.2265C50.7065 15.2265 49.6621 15.83 49.4262 17.1252L49.3966 17.3166Z" fill="white"/>
<path d="M33.6748 32.539C32.4238 34.0257 30.2454 34.6291 28.7296 34.6291C25.9919 34.6291 23.8119 32.6713 24.3728 29.4628C24.3877 29.3891 24.3877 29.3598 24.4023 29.301C24.405 29.2554 24.4149 29.2105 24.4319 29.1681C24.9911 25.9301 27.861 24.0178 30.6428 24.0178C32.2178 24.0178 34.043 24.6359 34.8228 26.1075L33.3804 27.5941C32.6886 26.2982 31.747 25.9327 30.481 25.9327C28.5824 25.9327 26.816 27.1837 26.4777 29.1708C26.4607 29.2181 26.4508 29.2677 26.4482 29.318C26.4335 29.3622 26.4335 29.421 26.4186 29.4652C26.0654 31.4668 27.0369 32.7178 29.2888 32.7178C30.2604 32.7178 31.6436 32.35 32.7624 31.0252L33.6748 32.539Z" fill="white"/>
<path d="M36.9721 23.4268H38.9592L37.7819 30.1387C38.1055 28.3282 39.1063 26.9595 41.0641 26.9595C42.9478 26.9595 43.6987 28.078 43.3306 30.1826L42.579 34.4663H40.592L41.2233 30.8604C41.4439 29.5798 41.3263 28.8146 39.8985 28.8146C38.7212 28.8146 37.8969 29.4768 37.6613 30.8016L37.0153 34.4663H35.0283L36.9721 23.4268Z" fill="white"/>
<path d="M48.8484 26.9594C50.8503 26.9594 51.4833 28.3134 51.1743 30.109L51.7043 27.1066H53.6913L52.3954 34.4804H50.4084L50.94 31.4776C50.6161 33.2719 49.6153 34.6276 47.6136 34.6276C45.803 34.6276 44.5666 33.2294 44.979 30.9038L45.0082 30.7124C45.4339 28.3426 47.0531 26.9594 48.8484 26.9594ZM46.9939 30.9038C46.7733 32.1844 47.2883 32.8908 48.6277 32.8908C50.2762 32.8908 50.8796 31.8309 51.0268 30.933L51.0859 30.6536C51.2328 29.7704 50.9975 28.8138 49.3195 28.8138C48.3041 28.8138 47.2594 29.4172 47.0235 30.7124L46.9939 30.9038Z" fill="white"/>
<path d="M63.1404 30.9038C62.7284 33.2297 60.9916 34.6276 59.1959 34.6276C57.1794 34.6276 56.6643 33.2586 56.9733 31.4484L55.7958 38.1604H53.8091L55.7516 27.1069H57.7396L57.2079 30.1532C57.5316 28.328 58.6503 26.9594 60.652 26.9594C62.4622 26.9594 63.5956 28.3426 63.1686 30.7141L63.1404 30.9038ZM59.5339 28.8138C57.8117 28.8138 57.2671 29.8 57.1053 30.6828L57.0757 30.9038C56.9139 31.787 57.1053 32.8908 58.7829 32.8908C59.8279 32.8908 60.9025 32.1844 61.1232 30.9038L61.1527 30.7124C61.389 29.4159 60.8444 28.8138 59.5339 28.8138Z" fill="white"/>
</svg>
