<svg width="150" height="44" viewBox="0 0 150 44" fill="none" xmlns="http://www.w3.org/2000/svg">
<rect x="0.5" y="0.5" width="149" height="43" rx="4.5" stroke="white"/>
<path d="M75.7065 23.9262C73.0932 23.9262 70.9632 25.8941 70.9632 28.6045C70.9632 31.2984 73.0932 33.2828 75.7065 33.2828C78.3209 33.2828 80.4509 31.2984 80.4509 28.6045C80.4498 25.8941 78.3198 23.9262 75.7065 23.9262ZM75.7065 31.4414C74.2743 31.4414 73.0398 30.2721 73.0398 28.6056C73.0398 26.9215 74.2754 25.7698 75.7065 25.7698C77.1387 25.7698 78.3732 26.9215 78.3732 28.6056C78.3732 30.271 77.1387 31.4414 75.7065 31.4414ZM65.3576 23.9262C62.7443 23.9262 60.6143 25.8941 60.6143 28.6045C60.6143 31.2984 62.7443 33.2828 65.3576 33.2828C67.972 33.2828 70.1021 31.2984 70.1021 28.6045C70.1021 25.8941 67.972 23.9262 65.3576 23.9262ZM65.3576 31.4414C63.9254 31.4414 62.6909 30.2721 62.6909 28.6056C62.6909 26.9215 63.9265 25.7698 65.3576 25.7698C66.7898 25.7698 68.0243 26.9215 68.0243 28.6056C68.0254 30.271 66.7898 31.4414 65.3576 31.4414ZM53.0487 25.3628V27.3472H57.8465C57.7032 28.4637 57.3276 29.2788 56.7543 29.8453C56.0565 30.5361 54.9643 31.2984 53.0487 31.2984C50.0954 31.2984 47.7865 28.9411 47.7865 26.0173C47.7865 23.0935 50.0954 20.7362 53.0487 20.7362C54.6421 20.7362 55.8054 21.3566 56.6643 22.1541L58.0787 20.7538C56.8787 19.6197 55.2865 18.7518 53.0487 18.7518C49.0032 18.7518 45.6021 22.0122 45.6021 26.0173C45.6021 30.0224 49.0032 33.2828 53.0487 33.2828C55.2321 33.2828 56.8798 32.5733 58.1676 31.2445C59.4921 29.9333 59.9043 28.0897 59.9043 26.6014C59.9043 26.1416 59.8687 25.7159 59.7965 25.3617H53.0487V25.3628ZM103.391 26.9039C102.998 25.8589 101.798 23.9262 99.3454 23.9262C96.9109 23.9262 94.8876 25.8226 94.8876 28.6045C94.8876 31.2269 96.8932 33.2828 99.5776 33.2828C101.743 33.2828 102.996 31.9716 103.516 31.2093L101.905 30.1456C101.369 30.9255 100.634 31.4392 99.5776 31.4392C98.5221 31.4392 97.7698 30.9607 97.2865 30.0213L103.605 27.4341L103.391 26.9039ZM96.9465 28.4637C96.8932 26.6553 98.3609 25.7346 99.4176 25.7346C100.241 25.7346 100.939 26.1427 101.172 26.7268L96.9465 28.4637ZM91.8098 33.0001H93.8854V19.249H91.8098V33.0001ZM88.4076 24.9723H88.3365C87.8709 24.4223 86.9754 23.9262 85.8487 23.9262C83.4854 23.9262 81.3198 25.9821 81.3198 28.6232C81.3198 31.2456 83.4854 33.2839 85.8487 33.2839C86.9765 33.2839 87.8709 32.7878 88.3365 32.2213H88.4076V32.8945C88.4076 34.6842 87.4409 35.6412 85.8843 35.6412C84.6132 35.6412 83.8254 34.7381 83.5032 33.9758L81.6954 34.7205C82.2143 35.9602 83.592 37.4848 85.8843 37.4848C88.3187 37.4848 90.3776 36.0669 90.3776 32.6107V24.2111H88.4087V24.9723H88.4076ZM86.0276 31.4414C84.5954 31.4414 83.3965 30.2534 83.3965 28.6232C83.3965 26.9743 84.5954 25.7698 86.0276 25.7698C87.4409 25.7698 88.5509 26.9743 88.5509 28.6232C88.5509 30.2534 87.4409 31.4414 86.0276 31.4414ZM113.118 19.249H108.15V33.0001H110.222V27.7905H113.117C115.414 27.7905 117.674 26.1438 117.674 23.5203C117.674 20.8968 115.415 19.249 113.118 19.249ZM113.171 25.8765H110.222V21.163H113.171C114.721 21.163 115.601 22.4335 115.601 23.5203C115.601 24.5851 114.721 25.8765 113.171 25.8765ZM125.984 23.902C124.483 23.902 122.929 24.5565 122.285 26.0074L124.125 26.7675C124.519 26.0074 125.252 25.7588 126.02 25.7588C127.092 25.7588 128.182 26.3957 128.2 27.5276V27.6695C127.824 27.4572 127.02 27.1393 126.038 27.1393C124.054 27.1393 122.034 28.2184 122.034 30.2347C122.034 32.075 123.661 33.2597 125.483 33.2597C126.876 33.2597 127.645 32.6404 128.128 31.9144H128.199V32.9759H130.201V27.7036C130.202 25.2638 128.36 23.902 125.984 23.902ZM125.733 31.4381C125.055 31.4381 124.108 31.1015 124.108 30.2699C124.108 29.2084 125.288 28.8014 126.307 28.8014C127.216 28.8014 127.646 28.9961 128.2 29.2612C128.039 30.5361 126.931 31.4381 125.733 31.4381ZM137.492 24.2023L135.115 30.1643H135.044L132.578 24.2023H130.344L134.043 32.5348L131.934 37.1702H134.096L139.798 24.2023H137.492ZM118.819 33.0001H120.891V19.249H118.819V33.0001Z" fill="white"/>
<path d="M52.6868 11.2673C52.6868 12.1891 52.4112 12.9228 51.859 13.4706C51.2323 14.1218 50.4146 14.4474 49.4101 14.4474C48.4479 14.4474 47.629 14.1174 46.9568 13.4574C46.2834 12.7963 45.9468 11.9779 45.9468 11.0011C45.9468 10.0232 46.2834 9.20476 46.9568 8.54476C47.629 7.88366 48.4479 7.55366 49.4101 7.55366C49.8879 7.55366 50.3446 7.64606 50.7779 7.82976C51.2123 8.01456 51.5601 8.25986 51.8201 8.56676L51.2346 9.14756C50.7934 8.62506 50.1857 8.36436 49.409 8.36436C48.7068 8.36436 48.1001 8.60856 47.5879 9.09696C47.0757 9.58536 46.8201 10.2201 46.8201 11C46.8201 11.7799 47.0757 12.4146 47.5879 12.903C48.1001 13.3914 48.7068 13.6356 49.409 13.6356C50.1534 13.6356 50.7746 13.3903 51.2712 12.8986C51.5934 12.5785 51.7801 12.133 51.8301 11.5621H49.409V10.769H52.639C52.6723 10.9417 52.6868 11.1078 52.6868 11.2673Z" fill="white"/>
<path d="M57.8091 8.51072H54.7736V10.6029H57.5113V11.396H54.7736V13.4882H57.8091V14.3H53.9169V7.70002H57.8091V8.51072Z" fill="white"/>
<path d="M61.4212 14.3H60.5645V8.51072H58.7023V7.70002H63.2834V8.51072H61.4212V14.3Z" fill="white"/>
<path d="M66.5978 14.3V7.70002H67.4545V14.3H66.5978Z" fill="white"/>
<path d="M71.2536 14.3H70.3969V8.51072H68.5347V7.70002H73.1158V8.51072H71.2536V14.3Z" fill="white"/>
<path d="M81.7878 13.4475C81.1322 14.1141 80.3177 14.4474 79.3433 14.4474C78.3689 14.4474 77.5544 14.1141 76.9 13.4475C76.2444 12.7809 75.9177 11.9647 75.9177 11C75.9177 10.0353 76.2444 9.21911 76.9 8.55251C77.5544 7.88591 78.3689 7.55151 79.3433 7.55151C80.3122 7.55151 81.1255 7.88701 81.7833 8.55691C82.4411 9.22681 82.77 10.0408 82.77 11C82.77 11.9647 82.4422 12.7809 81.7878 13.4475ZM77.5322 12.8942C78.0255 13.3892 78.6289 13.6356 79.3433 13.6356C80.0578 13.6356 80.6622 13.3881 81.1544 12.8942C81.6478 12.3992 81.8955 11.7678 81.8955 11C81.8955 10.2322 81.6478 9.60081 81.1544 9.10581C80.6622 8.61081 80.0578 8.36441 79.3433 8.36441C78.6289 8.36441 78.0255 8.61191 77.5322 9.10581C77.04 9.60081 76.7922 10.2322 76.7922 11C76.7922 11.7678 77.04 12.3992 77.5322 12.8942Z" fill="white"/>
<path d="M83.9722 14.3V7.70002H85.0144L88.2544 12.8337H88.2911L88.2544 11.5621V7.70002H89.1111V14.3H88.2167L84.8267 8.91663H84.79L84.8267 10.1882V14.3H83.9722Z" fill="white"/>
<path d="M52.6868 11.2673C52.6868 12.1891 52.4112 12.9228 51.859 13.4706C51.2323 14.1218 50.4146 14.4474 49.4101 14.4474C48.4479 14.4474 47.629 14.1174 46.9568 13.4574C46.2834 12.7963 45.9468 11.9779 45.9468 11.0011C45.9468 10.0232 46.2834 9.20476 46.9568 8.54476C47.629 7.88366 48.4479 7.55366 49.4101 7.55366C49.8879 7.55366 50.3446 7.64606 50.7779 7.82976C51.2123 8.01456 51.5601 8.25986 51.8201 8.56676L51.2346 9.14756C50.7934 8.62506 50.1857 8.36436 49.409 8.36436C48.7068 8.36436 48.1001 8.60856 47.5879 9.09696C47.0757 9.58536 46.8201 10.2201 46.8201 11C46.8201 11.7799 47.0757 12.4146 47.5879 12.903C48.1001 13.3914 48.7068 13.6356 49.409 13.6356C50.1534 13.6356 50.7746 13.3903 51.2712 12.8986C51.5934 12.5785 51.7801 12.133 51.8301 11.5621H49.409V10.769H52.639C52.6723 10.9417 52.6868 11.1078 52.6868 11.2673Z" stroke="white" stroke-width="0.2" stroke-miterlimit="10"/>
<path d="M57.8091 8.51072H54.7736V10.6029H57.5113V11.396H54.7736V13.4882H57.8091V14.3H53.9169V7.70002H57.8091V8.51072Z" stroke="white" stroke-width="0.2" stroke-miterlimit="10"/>
<path d="M61.4212 14.3H60.5645V8.51072H58.7023V7.70002H63.2834V8.51072H61.4212V14.3Z" stroke="white" stroke-width="0.2" stroke-miterlimit="10"/>
<path d="M66.5978 14.3V7.70002H67.4545V14.3H66.5978Z" stroke="white" stroke-width="0.2" stroke-miterlimit="10"/>
<path d="M71.2536 14.3H70.3969V8.51072H68.5347V7.70002H73.1158V8.51072H71.2536V14.3Z" stroke="white" stroke-width="0.2" stroke-miterlimit="10"/>
<path d="M81.7878 13.4475C81.1322 14.1141 80.3177 14.4474 79.3433 14.4474C78.3689 14.4474 77.5544 14.1141 76.9 13.4475C76.2444 12.7809 75.9177 11.9647 75.9177 11C75.9177 10.0353 76.2444 9.21911 76.9 8.55251C77.5544 7.88591 78.3689 7.55151 79.3433 7.55151C80.3122 7.55151 81.1255 7.88701 81.7833 8.55691C82.4411 9.22681 82.77 10.0408 82.77 11C82.77 11.9647 82.4422 12.7809 81.7878 13.4475ZM77.5322 12.8942C78.0255 13.3892 78.6289 13.6356 79.3433 13.6356C80.0578 13.6356 80.6622 13.3881 81.1544 12.8942C81.6478 12.3992 81.8955 11.7678 81.8955 11C81.8955 10.2322 81.6478 9.60081 81.1544 9.10581C80.6622 8.61081 80.0578 8.36441 79.3433 8.36441C78.6289 8.36441 78.0255 8.61191 77.5322 9.10581C77.04 9.60081 76.7922 10.2322 76.7922 11C76.7922 11.7678 77.04 12.3992 77.5322 12.8942Z" stroke="white" stroke-width="0.2" stroke-miterlimit="10"/>
<path d="M83.9722 14.3V7.70002H85.0144L88.2544 12.8337H88.2911L88.2544 11.5621V7.70002H89.1111V14.3H88.2167L84.8267 8.91663H84.79L84.8267 10.1882V14.3H83.9722Z" stroke="white" stroke-width="0.2" stroke-miterlimit="10"/>
<path fill-rule="evenodd" clip-rule="evenodd" d="M11.3084 8.71221C11.1623 9.01542 11.0811 9.39338 11.0811 9.83725V34.1649C11.0811 34.6097 11.1624 34.9876 11.3087 35.2907L24.731 22.0006L11.3084 8.71221ZM12.0056 36.0079C12.5076 36.2452 13.1746 36.1883 13.9044 35.7786L29.6823 26.9024L25.4417 22.7042L12.0056 36.0079ZM30.5894 26.3933L35.5722 23.5906C37.1244 22.7161 37.1244 21.2872 35.5722 20.4138L30.5872 17.6095L26.1524 22.0006L30.5894 26.3933ZM29.6808 17.0996L13.9044 8.22466C13.1746 7.81411 12.5075 7.75761 12.0056 7.99525L25.4417 21.297L29.6808 17.0996Z" fill="white"/>
</svg>
