<svg width="80" height="80" viewBox="0 0 80 80" fill="none" xmlns="http://www.w3.org/2000/svg">
<path d="M75.4077 39.9719C75.4077 59.3019 59.7377 74.9719 40.4077 74.9719C21.0777 74.9719 5.40771 59.3019 5.40771 39.9719C5.40771 20.642 21.0777 4.97192 40.4077 4.97192C59.7377 4.97192 75.4077 20.642 75.4077 39.9719Z" fill="url(#paint0_radial_8129_2263)"/>
<path d="M75.4077 39.9719C75.4077 59.3019 59.7377 74.9719 40.4077 74.9719C21.0777 74.9719 5.40771 59.3019 5.40771 39.9719C5.40771 20.642 21.0777 4.97192 40.4077 4.97192C59.7377 4.97192 75.4077 20.642 75.4077 39.9719Z" fill="url(#paint1_radial_8129_2263)"/>
<path d="M75.4077 39.9719C75.4077 59.3019 59.7377 74.9719 40.4077 74.9719C21.0777 74.9719 5.40771 59.3019 5.40771 39.9719C5.40771 20.642 21.0777 4.97192 40.4077 4.97192C59.7377 4.97192 75.4077 20.642 75.4077 39.9719Z" fill="url(#paint2_radial_8129_2263)"/>
<path d="M75.4077 39.9719C75.4077 59.3019 59.7377 74.9719 40.4077 74.9719C21.0777 74.9719 5.40771 59.3019 5.40771 39.9719C5.40771 20.642 21.0777 4.97192 40.4077 4.97192C59.7377 4.97192 75.4077 20.642 75.4077 39.9719Z" fill="url(#paint3_radial_8129_2263)"/>
<path d="M75.4077 39.9719C75.4077 59.3019 59.7377 74.9719 40.4077 74.9719C21.0777 74.9719 5.40771 59.3019 5.40771 39.9719C5.40771 20.642 21.0777 4.97192 40.4077 4.97192C59.7377 4.97192 75.4077 20.642 75.4077 39.9719Z" fill="url(#paint4_radial_8129_2263)"/>
<path d="M75.4077 39.9719C75.4077 59.3019 59.7377 74.9719 40.4077 74.9719C21.0777 74.9719 5.40771 59.3019 5.40771 39.9719C5.40771 20.642 21.0777 4.97192 40.4077 4.97192C59.7377 4.97192 75.4077 20.642 75.4077 39.9719Z" fill="url(#paint5_radial_8129_2263)"/>
<path d="M75.4077 39.9719C75.4077 59.3019 59.7377 74.9719 40.4077 74.9719C21.0777 74.9719 5.40771 59.3019 5.40771 39.9719C5.40771 20.642 21.0777 4.97192 40.4077 4.97192C59.7377 4.97192 75.4077 20.642 75.4077 39.9719Z" fill="url(#paint6_radial_8129_2263)"/>
<path d="M75.4077 39.9719C75.4077 59.3019 59.7377 74.9719 40.4077 74.9719C21.0777 74.9719 5.40771 59.3019 5.40771 39.9719C5.40771 20.642 21.0777 4.97192 40.4077 4.97192C59.7377 4.97192 75.4077 20.642 75.4077 39.9719Z" fill="url(#paint7_radial_8129_2263)"/>
<path fill-rule="evenodd" clip-rule="evenodd" d="M40.4795 17.5116C41.8602 17.5116 42.9795 18.6309 42.9795 20.0116V40.0001C42.9795 41.3808 41.8602 42.5001 40.4795 42.5001C39.0988 42.5001 37.9795 41.3808 37.9795 40.0001V20.0116C37.9795 18.6309 39.0988 17.5116 40.4795 17.5116Z" fill="url(#paint8_linear_8129_2263)"/>
<path fill-rule="evenodd" clip-rule="evenodd" d="M40.4795 17.5116C41.8602 17.5116 42.9795 18.6309 42.9795 20.0116V40.0001C42.9795 41.3808 41.8602 42.5001 40.4795 42.5001C39.0988 42.5001 37.9795 41.3808 37.9795 40.0001V20.0116C37.9795 18.6309 39.0988 17.5116 40.4795 17.5116Z" fill="url(#paint9_radial_8129_2263)" fill-opacity="0.15"/>
<path fill-rule="evenodd" clip-rule="evenodd" d="M40.4795 17.5116C41.8602 17.5116 42.9795 18.6309 42.9795 20.0116V40.0001C42.9795 41.3808 41.8602 42.5001 40.4795 42.5001C39.0988 42.5001 37.9795 41.3808 37.9795 40.0001V20.0116C37.9795 18.6309 39.0988 17.5116 40.4795 17.5116Z" fill="url(#paint10_linear_8129_2263)"/>
<path fill-rule="evenodd" clip-rule="evenodd" d="M40.4795 17.5116C41.8602 17.5116 42.9795 18.6309 42.9795 20.0116V40.0001C42.9795 41.3808 41.8602 42.5001 40.4795 42.5001C39.0988 42.5001 37.9795 41.3808 37.9795 40.0001V20.0116C37.9795 18.6309 39.0988 17.5116 40.4795 17.5116Z" fill="url(#paint11_radial_8129_2263)"/>
<path fill-rule="evenodd" clip-rule="evenodd" d="M49.1948 55.0842C47.9991 55.7746 46.4701 55.3649 45.7797 54.1692L38.3208 41.2499C37.6304 40.0541 38.0401 38.5252 39.2358 37.8348C40.4316 37.1445 41.9606 37.5541 42.6509 38.7499L50.1099 51.6692C50.8002 52.8649 50.3905 54.3939 49.1948 55.0842Z" fill="url(#paint12_linear_8129_2263)"/>
<path fill-rule="evenodd" clip-rule="evenodd" d="M49.1948 55.0842C47.9991 55.7746 46.4701 55.3649 45.7797 54.1692L38.3208 41.2499C37.6304 40.0541 38.0401 38.5252 39.2358 37.8348C40.4316 37.1445 41.9606 37.5541 42.6509 38.7499L50.1099 51.6692C50.8002 52.8649 50.3905 54.3939 49.1948 55.0842Z" fill="url(#paint13_linear_8129_2263)"/>
<path fill-rule="evenodd" clip-rule="evenodd" d="M49.1948 55.0842C47.9991 55.7746 46.4701 55.3649 45.7797 54.1692L38.3208 41.2499C37.6304 40.0541 38.0401 38.5252 39.2358 37.8348C40.4316 37.1445 41.9606 37.5541 42.6509 38.7499L50.1099 51.6692C50.8002 52.8649 50.3905 54.3939 49.1948 55.0842Z" fill="url(#paint14_radial_8129_2263)"/>
<path fill-rule="evenodd" clip-rule="evenodd" d="M49.1948 55.0842C47.9991 55.7746 46.4701 55.3649 45.7797 54.1692L38.3208 41.2499C37.6304 40.0541 38.0401 38.5252 39.2358 37.8348C40.4316 37.1445 41.9606 37.5541 42.6509 38.7499L50.1099 51.6692C50.8002 52.8649 50.3905 54.3939 49.1948 55.0842Z" fill="url(#paint15_linear_8129_2263)"/>
<path fill-rule="evenodd" clip-rule="evenodd" d="M49.1948 55.0842C47.9991 55.7746 46.4701 55.3649 45.7797 54.1692L38.3208 41.2499C37.6304 40.0541 38.0401 38.5252 39.2358 37.8348C40.4316 37.1445 41.9606 37.5541 42.6509 38.7499L50.1099 51.6692C50.8002 52.8649 50.3905 54.3939 49.1948 55.0842Z" fill="url(#paint16_radial_8129_2263)"/>
<path fill-rule="evenodd" clip-rule="evenodd" d="M40.4077 67.4719C55.5955 67.4719 67.9077 55.1597 67.9077 39.9719C67.9077 24.7841 55.5955 12.4719 40.4077 12.4719C25.2199 12.4719 12.9077 24.7841 12.9077 39.9719C12.9077 55.1597 25.2199 67.4719 40.4077 67.4719ZM40.4077 74.9719C59.7377 74.9719 75.4077 59.3019 75.4077 39.9719C75.4077 20.642 59.7377 4.97192 40.4077 4.97192C21.0777 4.97192 5.40771 20.642 5.40771 39.9719C5.40771 59.3019 21.0777 74.9719 40.4077 74.9719Z" fill="url(#paint17_linear_8129_2263)"/>
<path fill-rule="evenodd" clip-rule="evenodd" d="M40.4077 67.4719C55.5955 67.4719 67.9077 55.1597 67.9077 39.9719C67.9077 24.7841 55.5955 12.4719 40.4077 12.4719C25.2199 12.4719 12.9077 24.7841 12.9077 39.9719C12.9077 55.1597 25.2199 67.4719 40.4077 67.4719ZM40.4077 74.9719C59.7377 74.9719 75.4077 59.3019 75.4077 39.9719C75.4077 20.642 59.7377 4.97192 40.4077 4.97192C21.0777 4.97192 5.40771 20.642 5.40771 39.9719C5.40771 59.3019 21.0777 74.9719 40.4077 74.9719Z" fill="url(#paint18_radial_8129_2263)"/>
<path fill-rule="evenodd" clip-rule="evenodd" d="M40.4077 67.4719C55.5955 67.4719 67.9077 55.1597 67.9077 39.9719C67.9077 24.7841 55.5955 12.4719 40.4077 12.4719C25.2199 12.4719 12.9077 24.7841 12.9077 39.9719C12.9077 55.1597 25.2199 67.4719 40.4077 67.4719ZM40.4077 74.9719C59.7377 74.9719 75.4077 59.3019 75.4077 39.9719C75.4077 20.642 59.7377 4.97192 40.4077 4.97192C21.0777 4.97192 5.40771 20.642 5.40771 39.9719C5.40771 59.3019 21.0777 74.9719 40.4077 74.9719Z" fill="url(#paint19_radial_8129_2263)"/>
<path fill-rule="evenodd" clip-rule="evenodd" d="M40.4077 67.4719C55.5955 67.4719 67.9077 55.1597 67.9077 39.9719C67.9077 24.7841 55.5955 12.4719 40.4077 12.4719C25.2199 12.4719 12.9077 24.7841 12.9077 39.9719C12.9077 55.1597 25.2199 67.4719 40.4077 67.4719ZM40.4077 74.9719C59.7377 74.9719 75.4077 59.3019 75.4077 39.9719C75.4077 20.642 59.7377 4.97192 40.4077 4.97192C21.0777 4.97192 5.40771 20.642 5.40771 39.9719C5.40771 59.3019 21.0777 74.9719 40.4077 74.9719Z" fill="url(#paint20_radial_8129_2263)"/>
<path fill-rule="evenodd" clip-rule="evenodd" d="M40.4077 67.4719C55.5955 67.4719 67.9077 55.1597 67.9077 39.9719C67.9077 24.7841 55.5955 12.4719 40.4077 12.4719C25.2199 12.4719 12.9077 24.7841 12.9077 39.9719C12.9077 55.1597 25.2199 67.4719 40.4077 67.4719ZM40.4077 74.9719C59.7377 74.9719 75.4077 59.3019 75.4077 39.9719C75.4077 20.642 59.7377 4.97192 40.4077 4.97192C21.0777 4.97192 5.40771 20.642 5.40771 39.9719C5.40771 59.3019 21.0777 74.9719 40.4077 74.9719Z" fill="url(#paint21_radial_8129_2263)"/>
<path d="M45.4568 40.0002C45.4568 42.7462 43.2308 44.9722 40.4848 44.9722C37.7388 44.9722 35.5127 42.7462 35.5127 40.0002C35.5127 37.2542 37.7388 35.0281 40.4848 35.0281C43.2308 35.0281 45.4568 37.2542 45.4568 40.0002Z" fill="url(#paint22_radial_8129_2263)"/>
<path d="M45.4568 40.0002C45.4568 42.7462 43.2308 44.9722 40.4848 44.9722C37.7388 44.9722 35.5127 42.7462 35.5127 40.0002C35.5127 37.2542 37.7388 35.0281 40.4848 35.0281C43.2308 35.0281 45.4568 37.2542 45.4568 40.0002Z" fill="url(#paint23_radial_8129_2263)"/>
<defs>
<radialGradient id="paint0_radial_8129_2263" cx="0" cy="0" r="1" gradientUnits="userSpaceOnUse" gradientTransform="translate(24.3428 61.2175) rotate(-46.2124) scale(63.2415)">
<stop offset="0.598155" stop-color="#DDDADF"/>
<stop offset="1" stop-color="#BDBABF"/>
</radialGradient>
<radialGradient id="paint1_radial_8129_2263" cx="0" cy="0" r="1" gradientUnits="userSpaceOnUse" gradientTransform="translate(37.0596 42.5462) rotate(67.6996) scale(8.97552 13.6996)">
<stop offset="0.219179" stop-color="#C3C0C7"/>
<stop offset="0.412477" stop-color="#C3C0C7" stop-opacity="0.730662"/>
<stop offset="0.595062" stop-color="#C3C0C7" stop-opacity="0.387105"/>
<stop offset="0.801937" stop-color="#C3C0C7" stop-opacity="0.123055"/>
<stop offset="1" stop-color="#C3C0C7" stop-opacity="0"/>
</radialGradient>
<radialGradient id="paint2_radial_8129_2263" cx="0" cy="0" r="1" gradientUnits="userSpaceOnUse" gradientTransform="translate(37.912 34.2069) rotate(177.101) scale(4.35794 11.1134)">
<stop stop-color="#C3C0C7"/>
<stop offset="0.275013" stop-color="#C3C0C7" stop-opacity="0.769759"/>
<stop offset="0.492502" stop-color="#C3C0C7" stop-opacity="0.554237"/>
<stop offset="0.702058" stop-color="#C3C0C7" stop-opacity="0.25"/>
<stop offset="0.836314" stop-color="#C3C0C7" stop-opacity="0.0942649"/>
<stop offset="1" stop-color="#C3C0C7" stop-opacity="0"/>
</radialGradient>
<radialGradient id="paint3_radial_8129_2263" cx="0" cy="0" r="1" gradientUnits="userSpaceOnUse" gradientTransform="translate(38.4937 25.5027) rotate(177.957) scale(4.93808 11.2108)">
<stop stop-color="#C3C0C7"/>
<stop offset="0.481368" stop-color="#C3C0C7" stop-opacity="0.554237"/>
<stop offset="0.70407" stop-color="#C3C0C7" stop-opacity="0.25"/>
<stop offset="0.836314" stop-color="#C3C0C7" stop-opacity="0.0942649"/>
<stop offset="1" stop-color="#C3C0C7" stop-opacity="0"/>
</radialGradient>
<radialGradient id="paint4_radial_8129_2263" cx="0" cy="0" r="1" gradientUnits="userSpaceOnUse" gradientTransform="translate(38.3186 22.0614) rotate(-180) scale(4.55931 6.30166)">
<stop stop-color="#C3C0C7"/>
<stop offset="0.348958" stop-color="#C3C0C7" stop-opacity="0.554237"/>
<stop offset="0.70407" stop-color="#C3C0C7" stop-opacity="0.25"/>
<stop offset="0.836314" stop-color="#C3C0C7" stop-opacity="0.0942649"/>
<stop offset="1" stop-color="#C3C0C7" stop-opacity="0"/>
</radialGradient>
<radialGradient id="paint5_radial_8129_2263" cx="0" cy="0" r="1" gradientUnits="userSpaceOnUse" gradientTransform="translate(42.0075 47.0937) rotate(150.926) scale(3.6044 7.05677)">
<stop stop-color="#C3C0C7"/>
<stop offset="0.481368" stop-color="#C3C0C7" stop-opacity="0.554237"/>
<stop offset="0.70407" stop-color="#C3C0C7" stop-opacity="0.25"/>
<stop offset="0.836314" stop-color="#C3C0C7" stop-opacity="0.0942649"/>
<stop offset="1" stop-color="#C3C0C7" stop-opacity="0"/>
</radialGradient>
<radialGradient id="paint6_radial_8129_2263" cx="0" cy="0" r="1" gradientUnits="userSpaceOnUse" gradientTransform="translate(45.2343 52.7699) rotate(174.401) scale(3.21998 6.30413)">
<stop stop-color="#C3C0C7"/>
<stop offset="0.481368" stop-color="#C3C0C7" stop-opacity="0.554237"/>
<stop offset="0.70407" stop-color="#C3C0C7" stop-opacity="0.25"/>
<stop offset="0.836314" stop-color="#C3C0C7" stop-opacity="0.0942649"/>
<stop offset="1" stop-color="#C3C0C7" stop-opacity="0"/>
</radialGradient>
<radialGradient id="paint7_radial_8129_2263" cx="0" cy="0" r="1" gradientUnits="userSpaceOnUse" gradientTransform="translate(42.9094 49.2511) rotate(149.485) scale(5.12422 13.8214)">
<stop offset="0.103896" stop-color="#C3C0C7"/>
<stop offset="0.508053" stop-color="#C3C0C7" stop-opacity="0.554237"/>
<stop offset="0.70407" stop-color="#C3C0C7" stop-opacity="0.25"/>
<stop offset="0.836314" stop-color="#C3C0C7" stop-opacity="0.0942649"/>
<stop offset="1" stop-color="#C3C0C7" stop-opacity="0"/>
</radialGradient>
<linearGradient id="paint8_linear_8129_2263" x1="40.4795" y1="17.5116" x2="40.4795" y2="42.5001" gradientUnits="userSpaceOnUse">
<stop stop-color="#F83F4C"/>
<stop offset="1" stop-color="#F74093"/>
</linearGradient>
<radialGradient id="paint9_radial_8129_2263" cx="0" cy="0" r="1" gradientUnits="userSpaceOnUse" gradientTransform="translate(41.6656 25.4292) rotate(180) scale(1.91393 11.7537)">
<stop stop-color="white"/>
<stop offset="0.249149" stop-color="white" stop-opacity="0.9"/>
<stop offset="0.744082" stop-color="white" stop-opacity="0.275699"/>
<stop offset="1" stop-color="white" stop-opacity="0"/>
</radialGradient>
<linearGradient id="paint10_linear_8129_2263" x1="37.9607" y1="26.4905" x2="40.8806" y2="26.4905" gradientUnits="userSpaceOnUse">
<stop offset="0.131311" stop-color="#A23A67"/>
<stop offset="0.383392" stop-color="#A23A67" stop-opacity="0.75694"/>
<stop offset="0.751137" stop-color="#A23A67" stop-opacity="0.165681"/>
<stop offset="1" stop-color="#A23A67" stop-opacity="0"/>
</linearGradient>
<radialGradient id="paint11_radial_8129_2263" cx="0" cy="0" r="1" gradientUnits="userSpaceOnUse" gradientTransform="translate(44.2921 28.1542) rotate(-116.461) scale(11.6493 11.2358)">
<stop stop-color="#A23A67" stop-opacity="0"/>
<stop offset="0.802314" stop-color="#A23A67" stop-opacity="0"/>
<stop offset="0.83572" stop-color="#A23A67" stop-opacity="0.0962606"/>
<stop offset="0.894579" stop-color="#A23A67" stop-opacity="0.285673"/>
<stop offset="1" stop-color="#A23A67"/>
</radialGradient>
<linearGradient id="paint12_linear_8129_2263" x1="49.1948" y1="55.0842" x2="41.9305" y2="42.5021" gradientUnits="userSpaceOnUse">
<stop stop-color="#32183D"/>
<stop offset="1" stop-color="#2C3A65"/>
</linearGradient>
<linearGradient id="paint13_linear_8129_2263" x1="47.5722" y1="47.2737" x2="45.4071" y2="48.5237" gradientUnits="userSpaceOnUse">
<stop stop-color="#2E2840"/>
<stop offset="1" stop-color="#2E2840" stop-opacity="0"/>
</linearGradient>
<radialGradient id="paint14_radial_8129_2263" cx="0" cy="0" r="1" gradientUnits="userSpaceOnUse" gradientTransform="translate(49.4809 53.8497) rotate(-118.425) scale(14.7785 2.10263)">
<stop stop-color="#50375F"/>
<stop offset="1" stop-color="#50375F" stop-opacity="0"/>
</radialGradient>
<linearGradient id="paint15_linear_8129_2263" x1="49.1948" y1="55.0842" x2="48.2977" y2="53.5304" gradientUnits="userSpaceOnUse">
<stop stop-color="#3E1846"/>
<stop offset="1" stop-color="#3E1846" stop-opacity="0"/>
</linearGradient>
<radialGradient id="paint16_radial_8129_2263" cx="0" cy="0" r="1" gradientUnits="userSpaceOnUse" gradientTransform="translate(48.0574 53.955) rotate(-114.829) scale(1.81276 2.79159)">
<stop stop-color="#50375F"/>
<stop offset="0.463278" stop-color="#50375F" stop-opacity="0.515368"/>
<stop offset="0.795574" stop-color="#50375F" stop-opacity="0.132882"/>
<stop offset="1" stop-color="#50375F" stop-opacity="0"/>
</radialGradient>
<linearGradient id="paint17_linear_8129_2263" x1="61.6848" y1="10.0057" x2="11.1172" y2="71.306" gradientUnits="userSpaceOnUse">
<stop stop-color="#6D6B70"/>
<stop offset="1" stop-color="#706C74"/>
</linearGradient>
<radialGradient id="paint18_radial_8129_2263" cx="0" cy="0" r="1" gradientUnits="userSpaceOnUse" gradientTransform="translate(41.4095 39.503) rotate(149.639) scale(36.4076)">
<stop offset="0.914731" stop-color="#484150" stop-opacity="0"/>
<stop offset="0.928424" stop-color="#484150" stop-opacity="0.101097"/>
<stop offset="0.939283" stop-color="#484150" stop-opacity="0.27"/>
<stop offset="0.969496" stop-color="#484150" stop-opacity="0.77"/>
<stop offset="0.988059" stop-color="#484150"/>
</radialGradient>
<radialGradient id="paint19_radial_8129_2263" cx="0" cy="0" r="1" gradientUnits="userSpaceOnUse" gradientTransform="translate(39.2861 40.7298) rotate(-37.0827) scale(36.2804)">
<stop stop-color="#888888" stop-opacity="0"/>
<stop offset="0.938413" stop-color="#888888" stop-opacity="0"/>
<stop offset="0.952942" stop-color="#888888" stop-opacity="0.128798"/>
<stop offset="0.972799" stop-color="#888888" stop-opacity="0.53"/>
<stop offset="0.988906" stop-color="#888888" stop-opacity="0.822895"/>
<stop offset="1" stop-color="#888888"/>
</radialGradient>
<radialGradient id="paint20_radial_8129_2263" cx="0" cy="0" r="1" gradientUnits="userSpaceOnUse" gradientTransform="translate(39.7204 40.8218) rotate(149.509) scale(28.7087)">
<stop stop-color="#888888"/>
<stop offset="0.935213" stop-color="#888888"/>
<stop offset="0.9577" stop-color="#888888" stop-opacity="0.679592"/>
<stop offset="0.984798" stop-color="#888888" stop-opacity="0.155947"/>
<stop offset="1" stop-color="#888888" stop-opacity="0"/>
</radialGradient>
<radialGradient id="paint21_radial_8129_2263" cx="0" cy="0" r="1" gradientUnits="userSpaceOnUse" gradientTransform="translate(41.3013 39.2764) rotate(-42.8395) scale(28.7071 29.1173)">
<stop offset="0.925335" stop-color="#484150"/>
<stop offset="0.940224" stop-color="#484150" stop-opacity="0.881499"/>
<stop offset="0.964456" stop-color="#484150" stop-opacity="0.588909"/>
<stop offset="0.989814" stop-color="#484150" stop-opacity="0.11"/>
<stop offset="1" stop-color="#484150" stop-opacity="0"/>
</radialGradient>
<radialGradient id="paint22_radial_8129_2263" cx="0" cy="0" r="1" gradientUnits="userSpaceOnUse" gradientTransform="translate(42.9884 38.758) rotate(132.631) scale(8.4464)">
<stop stop-color="#C9C6CC"/>
<stop offset="0.101161" stop-color="#C9C6CC"/>
<stop offset="0.259126" stop-color="#C3C0C6"/>
<stop offset="0.371041" stop-color="#BAB7BD"/>
<stop offset="0.793546" stop-color="#928E95"/>
</radialGradient>
<radialGradient id="paint23_radial_8129_2263" cx="0" cy="0" r="1" gradientUnits="userSpaceOnUse" gradientTransform="translate(41.3929 39.2309) rotate(139.867) scale(6.50122)">
<stop offset="0.487329" stop-color="#776F7F" stop-opacity="0"/>
<stop offset="0.532414" stop-color="#776F7F" stop-opacity="0.0470898"/>
<stop offset="0.576462" stop-color="#776F7F" stop-opacity="0.12"/>
<stop offset="0.76616" stop-color="#776F7F" stop-opacity="0.498077"/>
<stop offset="1" stop-color="#776F7F"/>
</radialGradient>
</defs>
</svg>
