<svg width="24" height="24" viewBox="0 0 24 24" fill="none" xmlns="http://www.w3.org/2000/svg">
<g clip-path="url(#clip0_8132_22024)">
<path d="M0.601673 11.8563C0.601115 13.8728 1.128 15.8417 2.12986 17.5771L0.505859 23.5066L6.57395 21.9156C8.25231 22.8292 10.1328 23.308 12.0437 23.3081H12.0487C18.3571 23.3081 23.4923 18.1748 23.495 11.8653C23.4962 8.80792 22.3066 5.93295 20.1453 3.76997C17.9844 1.60718 15.1104 0.415458 12.0483 0.414062C5.73916 0.414062 0.604371 5.54709 0.601766 11.8563" fill="url(#paint0_linear_8132_22024)"/>
<path d="M0.192797 11.8527C0.192145 13.9417 0.737913 15.981 1.77549 17.7786L0.0932617 23.9207L6.37894 22.2726C8.11084 23.2168 10.0608 23.7147 12.045 23.7154H12.0501C18.5848 23.7154 23.9044 18.3975 23.9072 11.8621C23.9083 8.69488 22.676 5.71656 20.4374 3.47609C18.1987 1.23591 15.2219 0.00130233 12.0501 0C5.51428 0 0.195401 5.31721 0.192797 11.8527ZM3.93615 17.469L3.70145 17.0965C2.71484 15.5277 2.1941 13.7149 2.19484 11.8534C2.19689 6.4213 6.61773 2.00186 12.0538 2.00186C14.6864 2.00298 17.1604 3.02921 19.0213 4.89116C20.882 6.7533 21.9059 9.22865 21.9053 11.8614C21.9028 17.2935 17.4819 21.7135 12.0501 21.7135H12.0462C10.2775 21.7126 8.54294 21.2376 7.03019 20.34L6.67019 20.1265L2.94015 21.1045L3.93615 17.469Z" fill="url(#paint1_linear_8132_22024)"/>
<path d="M9.08679 6.89746C8.86483 6.40416 8.63125 6.39421 8.42018 6.38556C8.24734 6.37811 8.04976 6.37867 7.85237 6.37867C7.65479 6.37867 7.33376 6.453 7.06241 6.74928C6.79079 7.04583 6.02539 7.76249 6.02539 9.22007C6.02539 10.6777 7.08707 12.0864 7.23507 12.2843C7.38325 12.4817 9.28465 15.5686 12.296 16.7562C14.7987 17.743 15.308 17.5468 15.8512 17.4973C16.3944 17.448 17.6041 16.7808 17.8509 16.089C18.0979 15.3973 18.0979 14.8043 18.0238 14.6804C17.9498 14.557 17.7522 14.4829 17.4559 14.3348C17.1595 14.1866 15.703 13.4698 15.4314 13.371C15.1598 13.2722 14.9623 13.2229 14.7647 13.5195C14.5672 13.8157 13.9998 14.4829 13.8269 14.6804C13.6541 14.8785 13.4812 14.9031 13.185 14.755C12.8886 14.6063 11.9344 14.2938 10.8024 13.2846C9.92167 12.4993 9.32706 11.5296 9.15423 11.2329C8.98139 10.9367 9.13572 10.7762 9.28427 10.6285C9.41739 10.4958 9.58065 10.2826 9.72893 10.1096C9.87665 9.93663 9.92595 9.81318 10.0247 9.6156C10.1236 9.41783 10.0741 9.24481 10.0002 9.09663C9.92595 8.94844 9.35023 7.48323 9.08679 6.89746Z" fill="white"/>
</g>
<defs>
<linearGradient id="paint0_linear_8132_22024" x1="1149.96" y1="2309.67" x2="1149.96" y2="0.414062" gradientUnits="userSpaceOnUse">
<stop stop-color="#1FAF38"/>
<stop offset="1" stop-color="#60D669"/>
</linearGradient>
<linearGradient id="paint1_linear_8132_22024" x1="1190.79" y1="2392.07" x2="1190.79" y2="0" gradientUnits="userSpaceOnUse">
<stop stop-color="#F9F9F9"/>
<stop offset="1" stop-color="white"/>
</linearGradient>
<clipPath id="clip0_8132_22024">
<rect width="23.814" height="24" fill="white" transform="translate(0.0932617)"/>
</clipPath>
</defs>
</svg>
