<svg width="80" height="80" viewBox="0 0 80 80" fill="none" xmlns="http://www.w3.org/2000/svg">
<path d="M39.9972 74.9944C63.3333 74.9944 74.9944 59.3256 74.9944 39.9972C74.9944 20.6688 63.3333 5 39.9972 5C16.6611 5 5 20.6688 5 39.9972C5 59.3256 16.6611 74.9944 39.9972 74.9944Z" fill="url(#paint0_radial_8131_2266)"/>
<path d="M39.9972 74.9944C63.3333 74.9944 74.9944 59.3256 74.9944 39.9972C74.9944 20.6688 63.3333 5 39.9972 5C16.6611 5 5 20.6688 5 39.9972C5 59.3256 16.6611 74.9944 39.9972 74.9944Z" fill="url(#paint1_radial_8131_2266)"/>
<path d="M39.9972 74.9944C63.3333 74.9944 74.9944 59.3256 74.9944 39.9972C74.9944 20.6688 63.3333 5 39.9972 5C16.6611 5 5 20.6688 5 39.9972C5 59.3256 16.6611 74.9944 39.9972 74.9944Z" fill="url(#paint2_radial_8131_2266)" fill-opacity="0.6"/>
<path d="M39.9972 74.9944C63.3333 74.9944 74.9944 59.3256 74.9944 39.9972C74.9944 20.6688 63.3333 5 39.9972 5C16.6611 5 5 20.6688 5 39.9972C5 59.3256 16.6611 74.9944 39.9972 74.9944Z" fill="url(#paint3_radial_8131_2266)"/>
<path d="M39.9972 74.9944C63.3333 74.9944 74.9944 59.3256 74.9944 39.9972C74.9944 20.6688 63.3333 5 39.9972 5C16.6611 5 5 20.6688 5 39.9972C5 59.3256 16.6611 74.9944 39.9972 74.9944Z" fill="url(#paint4_radial_8131_2266)"/>
<path d="M39.9972 74.9944C63.3333 74.9944 74.9944 59.3256 74.9944 39.9972C74.9944 20.6688 63.3333 5 39.9972 5C16.6611 5 5 20.6688 5 39.9972C5 59.3256 16.6611 74.9944 39.9972 74.9944Z" fill="url(#paint5_radial_8131_2266)"/>
<path d="M39.9972 74.9944C63.3333 74.9944 74.9944 59.3256 74.9944 39.9972C74.9944 20.6688 63.3333 5 39.9972 5C16.6611 5 5 20.6688 5 39.9972C5 59.3256 16.6611 74.9944 39.9972 74.9944Z" fill="url(#paint6_radial_8131_2266)"/>
<path d="M39.9972 74.9944C63.3333 74.9944 74.9944 59.3256 74.9944 39.9972C74.9944 20.6688 63.3333 5 39.9972 5C16.6611 5 5 20.6688 5 39.9972C5 59.3256 16.6611 74.9944 39.9972 74.9944Z" fill="url(#paint7_radial_8131_2266)"/>
<path d="M39.9972 74.9944C63.3333 74.9944 74.9944 59.3256 74.9944 39.9972C74.9944 20.6688 63.3333 5 39.9972 5C16.6611 5 5 20.6688 5 39.9972C5 59.3256 16.6611 74.9944 39.9972 74.9944Z" fill="url(#paint8_radial_8131_2266)"/>
<path d="M39.9972 74.9944C63.3333 74.9944 74.9944 59.3256 74.9944 39.9972C74.9944 20.6688 63.3333 5 39.9972 5C16.6611 5 5 20.6688 5 39.9972C5 59.3256 16.6611 74.9944 39.9972 74.9944Z" fill="url(#paint9_radial_8131_2266)"/>
<path fill-rule="evenodd" clip-rule="evenodd" d="M15 33.75C15 33.3275 15.0233 32.9104 15.0687 32.5H37.4313C37.4767 32.9104 37.5 33.3275 37.5 33.75C37.5 39.9632 32.4632 45 26.25 45C20.0368 45 15 39.9632 15 33.75ZM42.5 33.75C42.5 33.3275 42.5233 32.9104 42.5687 32.5H64.9313C64.9767 32.9104 65 33.3275 65 33.75C65 39.9632 59.9632 45 53.75 45C47.5368 45 42.5 39.9632 42.5 33.75Z" fill="white"/>
<path fill-rule="evenodd" clip-rule="evenodd" d="M25 33.125C25 32.9137 25.0116 32.7052 25.0342 32.5H36.2158C36.2384 32.7052 36.25 32.9137 36.25 33.125C36.25 36.2362 33.7362 38.75 30.625 38.75C27.5138 38.7251 25 36.2113 25 33.125ZM52.5 33.125C52.5 32.9137 52.5116 32.7052 52.5342 32.5H63.7158C63.7384 32.7052 63.75 32.9137 63.75 33.125C63.75 36.2362 61.2362 38.75 58.125 38.75C55.0138 38.7251 52.5 36.2113 52.5 33.125Z" fill="url(#paint10_linear_8131_2266)"/>
<path fill-rule="evenodd" clip-rule="evenodd" d="M58.3048 49.9833C59.6119 50.4281 60.3109 51.8484 59.866 53.1554C56.5949 62.7662 46.1446 67.8883 36.5374 64.5894C35.2315 64.141 34.5364 62.7189 34.9848 61.413C35.4332 60.1071 36.8553 59.412 38.1612 59.8604C45.154 62.2616 52.7538 58.5337 55.1326 51.5444C55.5775 50.2373 56.9978 49.5384 58.3048 49.9833Z" fill="url(#paint11_linear_8131_2266)"/>
<path fill-rule="evenodd" clip-rule="evenodd" d="M20.1735 19.969C18.6912 21.3762 17.7948 23.0693 17.4362 24.1453C17.2179 24.8002 16.51 25.1542 15.8551 24.9359C15.2001 24.7175 14.8462 24.0096 15.0645 23.3547C15.5392 21.9307 16.6428 19.8738 18.4522 18.156C20.2829 16.418 22.8701 15 26.2503 15C26.9407 15 27.5003 15.5596 27.5003 16.25C27.5003 16.9404 26.9407 17.5 26.2503 17.5C23.6306 17.5 21.6345 18.582 20.1735 19.969Z" fill="url(#paint12_linear_8131_2266)"/>
<path fill-rule="evenodd" clip-rule="evenodd" d="M59.8265 19.969C61.3088 21.3762 62.2052 23.0693 62.5638 24.1453C62.7821 24.8002 63.49 25.1542 64.1449 24.9359C64.7999 24.7175 65.1538 24.0096 64.9355 23.3547C64.4608 21.9307 63.3572 19.8738 61.5478 18.156C59.7171 16.418 57.1299 15 53.7497 15C53.0593 15 52.4997 15.5596 52.4997 16.25C52.4997 16.9404 53.0593 17.5 53.7497 17.5C56.3694 17.5 58.3655 18.582 59.8265 19.969Z" fill="url(#paint13_linear_8131_2266)"/>
<defs>
<radialGradient id="paint0_radial_8131_2266" cx="0" cy="0" r="1" gradientUnits="userSpaceOnUse" gradientTransform="translate(63.75 22.5) rotate(131.878) scale(97.3717)">
<stop stop-color="#FFF478"/>
<stop offset="0.474827" stop-color="#FFB02E"/>
<stop offset="1" stop-color="#F70A8D"/>
</radialGradient>
<radialGradient id="paint1_radial_8131_2266" cx="0" cy="0" r="1" gradientUnits="userSpaceOnUse" gradientTransform="translate(40 31.25) rotate(101.31) scale(44.6164 57.1451)">
<stop offset="0.787821" stop-color="#F59639" stop-opacity="0"/>
<stop offset="0.972509" stop-color="#FF7DCE"/>
</radialGradient>
<radialGradient id="paint2_radial_8131_2266" cx="0" cy="0" r="1" gradientUnits="userSpaceOnUse" gradientTransform="translate(45 35) rotate(135) scale(102.53)">
<stop offset="0.314853" stop-opacity="0"/>
<stop offset="1"/>
</radialGradient>
<radialGradient id="paint3_radial_8131_2266" cx="0" cy="0" r="1" gradientUnits="userSpaceOnUse" gradientTransform="translate(40 42.5) rotate(77.692) scale(70.3673)">
<stop offset="0.507903" stop-color="#7D6133" stop-opacity="0"/>
<stop offset="1" stop-color="#715B32"/>
</radialGradient>
<radialGradient id="paint4_radial_8131_2266" cx="0" cy="0" r="1" gradientUnits="userSpaceOnUse" gradientTransform="translate(41.25 41.25) rotate(55.7131) scale(33.2838 24.1258)">
<stop stop-color="#FFB849"/>
<stop offset="1" stop-color="#FFB847" stop-opacity="0"/>
</radialGradient>
<radialGradient id="paint5_radial_8131_2266" cx="0" cy="0" r="1" gradientUnits="userSpaceOnUse" gradientTransform="translate(51.25 45) rotate(9.86581) scale(29.1815)">
<stop stop-color="#FFA64B"/>
<stop offset="0.900412" stop-color="#FFAE46" stop-opacity="0"/>
</radialGradient>
<radialGradient id="paint6_radial_8131_2266" cx="0" cy="0" r="1" gradientUnits="userSpaceOnUse" gradientTransform="translate(43.75 37.5) rotate(43.9708) scale(147.632)">
<stop offset="0.185425" stop-opacity="0"/>
<stop offset="1" stop-opacity="0.4"/>
</radialGradient>
<radialGradient id="paint7_radial_8131_2266" cx="0" cy="0" r="1" gradientUnits="userSpaceOnUse" gradientTransform="translate(24.0467 37.1107) rotate(90) scale(11.5758 13.1099)">
<stop offset="0.421754" stop-color="#CA742B"/>
<stop offset="0.890371" stop-color="#C87928" stop-opacity="0"/>
</radialGradient>
<radialGradient id="paint8_radial_8131_2266" cx="0" cy="0" r="1" gradientUnits="userSpaceOnUse" gradientTransform="translate(52.9806 39.9973) rotate(90) scale(7.65106 10.3393)">
<stop offset="0.275914" stop-color="#CA742B"/>
<stop offset="0.890371" stop-color="#C87928" stop-opacity="0"/>
</radialGradient>
<radialGradient id="paint9_radial_8131_2266" cx="0" cy="0" r="1" gradientUnits="userSpaceOnUse" gradientTransform="translate(24.0151 30.0634) rotate(90) scale(14.1139 12.142)">
<stop offset="0.460742" stop-color="#FFBE48"/>
<stop offset="1" stop-color="#FFC149" stop-opacity="0"/>
</radialGradient>
<linearGradient id="paint10_linear_8131_2266" x1="59.2788" y1="32.5" x2="58.7464" y2="38.9371" gradientUnits="userSpaceOnUse">
<stop stop-color="#553B3E"/>
<stop offset="1" stop-color="#3D2432"/>
</linearGradient>
<linearGradient id="paint11_linear_8131_2266" x1="47.4243" y1="46.98" x2="47.4243" y2="57.7199" gradientUnits="userSpaceOnUse">
<stop stop-color="#4F3C43"/>
<stop offset="1" stop-color="#512756"/>
</linearGradient>
<linearGradient id="paint12_linear_8131_2266" x1="17.0837" y1="26" x2="17.0837" y2="21.5" gradientUnits="userSpaceOnUse">
<stop offset="0.0299084" stop-color="#524049"/>
<stop offset="1" stop-color="#4A2C42"/>
</linearGradient>
<linearGradient id="paint13_linear_8131_2266" x1="62.9163" y1="26" x2="62.9163" y2="21.5" gradientUnits="userSpaceOnUse">
<stop offset="0.0299084" stop-color="#524049"/>
<stop offset="1" stop-color="#4A2C42"/>
</linearGradient>
</defs>
</svg>
