<svg width="24" height="25" viewBox="0 0 24 25" fill="none" xmlns="http://www.w3.org/2000/svg">
<path d="M21.5 17.3462C21.5 17.9174 21.2776 18.4652 20.8817 18.8692C20.4858 19.2731 19.9488 19.5 19.3889 19.5H4.61111C4.05121 19.5 3.51424 19.2731 3.11833 18.8692C2.72242 18.4652 2.5 17.9174 2.5 17.3462V7.65385C2.5 7.08261 2.72242 6.53477 3.11833 6.13085C3.51424 5.72692 4.05121 5.5 4.61111 5.5H19.3889C19.9488 5.5 20.4858 5.72692 20.8817 6.13085C21.2776 6.53477 21.5 7.08261 21.5 7.65385V17.3462Z" fill="#CCD6DD"/>
<path d="M8.70065 12.6571L2.53272 18.7102C2.51799 18.7257 2.51254 18.7444 2.5 18.7594C2.68539 19.0644 2.94384 19.3175 3.25463 19.5C3.27045 19.4877 3.28899 19.4823 3.30371 19.4679L9.47274 13.4137C9.52336 13.364 9.5635 13.3049 9.59087 13.2399C9.61824 13.175 9.63231 13.1053 9.63226 13.035C9.63221 12.9647 9.61804 12.8951 9.59058 12.8302C9.56312 12.7652 9.52289 12.7062 9.47219 12.6565C9.4215 12.6069 9.36133 12.5675 9.29512 12.5406C9.22891 12.5138 9.15795 12.5 9.08631 12.5C9.01467 12.5 8.94373 12.5139 8.87756 12.5409C8.81139 12.5679 8.75128 12.6073 8.70065 12.6571ZM21.5 18.7594C21.4886 18.7444 21.482 18.7257 21.4673 18.7113L15.2993 12.6571C15.2487 12.6074 15.1886 12.5679 15.1225 12.541C15.0563 12.5141 14.9854 12.5002 14.9138 12.5002C14.8422 12.5002 14.7712 12.514 14.7051 12.5409C14.6389 12.5677 14.5787 12.6071 14.5281 12.6568C14.4774 12.7065 14.4372 12.7655 14.4098 12.8304C14.3824 12.8953 14.3682 12.9649 14.3682 13.0352C14.3682 13.1055 14.3823 13.1751 14.4096 13.24C14.437 13.305 14.4772 13.364 14.5278 13.4137L20.6963 19.4679C20.7105 19.4818 20.7301 19.4877 20.7454 19.5C21.0558 19.3187 21.3152 19.0641 21.5 18.7594Z" fill="#99AAB5"/>
<path d="M19.3889 5.5H4.61111C4.05121 5.5 3.51424 5.72132 3.11833 6.11527C2.72242 6.50921 2.5 7.04352 2.5 7.60065L2.5 8.14156L10.167 15.7543C10.6499 16.2319 11.3031 16.5 11.9839 16.5C12.6647 16.5 13.3179 16.2319 13.8008 15.7543L21.5 8.13054V7.60065C21.5 7.04352 21.2776 6.50921 20.8817 6.11527C20.4858 5.72132 19.9488 5.5 19.3889 5.5Z" fill="#99AAB5"/>
<path d="M19.559 5.5H4.44103C4.0346 5.50092 3.6367 5.61868 3.29325 5.83969C2.94981 6.0607 2.67481 6.37595 2.5 6.74906L10.4725 14.8567C10.6731 15.0607 10.9112 15.2224 11.1732 15.3328C11.4353 15.4432 11.7161 15.5 11.9997 15.5C12.2834 15.5 12.5642 15.4432 12.8262 15.3328C13.0883 15.2224 13.3264 15.0607 13.5269 14.8567L21.5 6.74906C21.3252 6.37591 21.0503 6.06062 20.7068 5.8396C20.3633 5.61859 19.9654 5.50086 19.559 5.5Z" fill="#E1E8ED"/>
<path d="M16.5 11.9617C16.5001 11.6384 16.4359 11.3183 16.3112 11.0197C16.1865 10.721 16.0036 10.4496 15.7731 10.221C15.5426 9.99244 15.2689 9.81111 14.9677 9.68739C14.6665 9.56368 14.3437 9.5 14.0176 9.5C13.6228 9.50004 13.2338 9.59354 12.8828 9.77272C12.5318 9.95191 12.2291 10.2116 11.9998 10.5302C11.7705 10.2117 11.4679 9.95212 11.1171 9.77295C10.7663 9.59377 10.3775 9.5002 9.98288 9.5C9.32438 9.5 8.69285 9.75935 8.22722 10.221C7.76159 10.6827 7.5 11.3088 7.5 11.9617C7.5 12.1547 7.52489 12.3412 7.56671 12.5209C7.91174 14.6444 10.2931 16.885 11.9998 17.5C13.7065 16.885 16.0883 14.6444 16.4328 12.5214C16.4751 12.3412 16.5 12.1542 16.5 11.9617Z" fill="#DD2E44"/>
</svg>
