<svg width="32" height="32" viewBox="0 0 32 32" fill="none" xmlns="http://www.w3.org/2000/svg">
<path d="M26.6668 26.6667V20H20.0002M5.3335 5.33336V12H12.0002M26.5842 14.6667C26.3051 12.4499 25.337 10.3767 23.8165 8.73954C22.296 7.1024 20.2999 5.98398 18.1097 5.54206C15.9196 5.10014 13.646 5.35703 11.6096 6.27649C9.57327 7.19595 7.87702 8.73157 6.76016 10.6667M5.41616 17.3334C5.69526 19.5502 6.66334 21.6234 8.18382 23.2605C9.7043 24.8977 11.7004 26.0161 13.8906 26.458C16.0807 26.8999 18.3544 26.643 20.3907 25.7236C22.4271 24.8041 24.1233 23.2685 25.2402 21.3334" stroke="white" stroke-width="2" stroke-linecap="round" stroke-linejoin="round"/>
</svg>
